<mxfile host="app.diagrams.net" modified="2023-05-27T20:56:55.259Z" agent="Mozilla/5.0 (Windows NT 10.0; Win64; x64) AppleWebKit/537.36 (KHTML, like Gecko) Chrome/113.0.0.0 Safari/537.36" version="21.3.4" etag="N8uO7Z4s1nQOzDuKwZjh" type="github">
  <diagram name="Page-1" id="o5EV6_df1iuIjjgkxo9o">
    <mxGraphModel>
      <root>
        <mxCell id="0" />
        <mxCell id="1" parent="0" />
      </root>
    </mxGraphModel>
  </diagram>
</mxfile>
